<mxfile host="app.diagrams.net" agent="Mozilla/5.0 (Windows NT 10.0; Win64; x64) AppleWebKit/537.36 (KHTML, like Gecko) Chrome/132.0.0.0 Safari/537.36" version="26.0.7">
  <diagram name="Page-1" id="2YBvvXClWsGukQMizWep">
    <mxGraphModel dx="350" dy="186" grid="1" gridSize="10" guides="1" tooltips="1" connect="1" arrows="1" fold="1" page="1" pageScale="1" pageWidth="850" pageHeight="1100" math="0" shadow="0">
      <root>
        <mxCell id="0" />
        <mxCell id="1" parent="0" />
        <mxCell id="_xnIuPefK0gF_MjHe_i0-9" value="Manager" style="shape=umlLifeline;perimeter=lifelinePerimeter;whiteSpace=wrap;html=1;container=1;dropTarget=0;collapsible=0;recursiveResize=0;outlineConnect=0;portConstraint=eastwest;newEdgeStyle={&quot;curved&quot;:0,&quot;rounded&quot;:0};" parent="1" vertex="1">
          <mxGeometry x="40" y="40" width="120" height="600" as="geometry" />
        </mxCell>
        <mxCell id="_xnIuPefK0gF_MjHe_i0-19" value="" style="html=1;points=[[0,0,0,0,5],[0,1,0,0,-5],[1,0,0,0,5],[1,1,0,0,-5]];perimeter=orthogonalPerimeter;outlineConnect=0;targetShapes=umlLifeline;portConstraint=eastwest;newEdgeStyle={&quot;curved&quot;:0,&quot;rounded&quot;:0};" parent="_xnIuPefK0gF_MjHe_i0-9" vertex="1">
          <mxGeometry x="55" y="64" width="10" height="316" as="geometry" />
        </mxCell>
        <mxCell id="_xnIuPefK0gF_MjHe_i0-11" value="Software" style="shape=umlLifeline;perimeter=lifelinePerimeter;whiteSpace=wrap;html=1;container=1;dropTarget=0;collapsible=0;recursiveResize=0;outlineConnect=0;portConstraint=eastwest;newEdgeStyle={&quot;curved&quot;:0,&quot;rounded&quot;:0};" parent="1" vertex="1">
          <mxGeometry x="200" y="42" width="120" height="598" as="geometry" />
        </mxCell>
        <mxCell id="_xnIuPefK0gF_MjHe_i0-22" value="" style="html=1;points=[[0,0,0,0,5],[0,1,0,0,-5],[1,0,0,0,5],[1,1,0,0,-5]];perimeter=orthogonalPerimeter;outlineConnect=0;targetShapes=umlLifeline;portConstraint=eastwest;newEdgeStyle={&quot;curved&quot;:0,&quot;rounded&quot;:0};" parent="_xnIuPefK0gF_MjHe_i0-11" vertex="1">
          <mxGeometry x="55" y="134" width="10" height="56" as="geometry" />
        </mxCell>
        <mxCell id="_xnIuPefK0gF_MjHe_i0-60" value="" style="html=1;points=[[0,0,0,0,5],[0,1,0,0,-5],[1,0,0,0,5],[1,1,0,0,-5]];perimeter=orthogonalPerimeter;outlineConnect=0;targetShapes=umlLifeline;portConstraint=eastwest;newEdgeStyle={&quot;curved&quot;:0,&quot;rounded&quot;:0};" parent="_xnIuPefK0gF_MjHe_i0-11" vertex="1">
          <mxGeometry x="55" y="311" width="10" height="56" as="geometry" />
        </mxCell>
        <mxCell id="_xnIuPefK0gF_MjHe_i0-61" value="5. Trainer Availability Time" style="html=1;verticalAlign=bottom;endArrow=block;curved=0;rounded=0;" parent="_xnIuPefK0gF_MjHe_i0-11" edge="1">
          <mxGeometry x="0.0034" width="80" relative="1" as="geometry">
            <mxPoint x="-94.5" y="311" as="sourcePoint" />
            <mxPoint x="53" y="311" as="targetPoint" />
            <mxPoint as="offset" />
          </mxGeometry>
        </mxCell>
        <mxCell id="_xnIuPefK0gF_MjHe_i0-62" value="6. Time Availability" style="html=1;verticalAlign=bottom;endArrow=open;dashed=1;endSize=8;curved=0;rounded=0;" parent="_xnIuPefK0gF_MjHe_i0-11" edge="1">
          <mxGeometry x="0.0039" relative="1" as="geometry">
            <mxPoint x="53" y="366" as="sourcePoint" />
            <mxPoint x="-95.75" y="365.67" as="targetPoint" />
            <mxPoint as="offset" />
          </mxGeometry>
        </mxCell>
        <mxCell id="_xnIuPefK0gF_MjHe_i0-12" value="Member" style="shape=umlLifeline;perimeter=lifelinePerimeter;whiteSpace=wrap;html=1;container=1;dropTarget=0;collapsible=0;recursiveResize=0;outlineConnect=0;portConstraint=eastwest;newEdgeStyle={&quot;curved&quot;:0,&quot;rounded&quot;:0};" parent="1" vertex="1">
          <mxGeometry x="365" y="40" width="120" height="600" as="geometry" />
        </mxCell>
        <mxCell id="_xnIuPefK0gF_MjHe_i0-17" value="" style="html=1;points=[[0,0,0,0,5],[0,1,0,0,-5],[1,0,0,0,5],[1,1,0,0,-5]];perimeter=orthogonalPerimeter;outlineConnect=0;targetShapes=umlLifeline;portConstraint=eastwest;newEdgeStyle={&quot;curved&quot;:0,&quot;rounded&quot;:0};" parent="_xnIuPefK0gF_MjHe_i0-12" vertex="1">
          <mxGeometry x="55" y="64" width="10" height="56" as="geometry" />
        </mxCell>
        <mxCell id="_xnIuPefK0gF_MjHe_i0-26" value="" style="html=1;points=[[0,0,0,0,5],[0,1,0,0,-5],[1,0,0,0,5],[1,1,0,0,-5]];perimeter=orthogonalPerimeter;outlineConnect=0;targetShapes=umlLifeline;portConstraint=eastwest;newEdgeStyle={&quot;curved&quot;:0,&quot;rounded&quot;:0};" parent="_xnIuPefK0gF_MjHe_i0-12" vertex="1">
          <mxGeometry x="55" y="230" width="10" height="56" as="geometry" />
        </mxCell>
        <mxCell id="_xnIuPefK0gF_MjHe_i0-67" value="" style="html=1;points=[[0,0,0,0,5],[0,1,0,0,-5],[1,0,0,0,5],[1,1,0,0,-5]];perimeter=orthogonalPerimeter;outlineConnect=0;targetShapes=umlLifeline;portConstraint=eastwest;newEdgeStyle={&quot;curved&quot;:0,&quot;rounded&quot;:0};" parent="_xnIuPefK0gF_MjHe_i0-12" vertex="1">
          <mxGeometry x="-109" y="408" width="10" height="56" as="geometry" />
        </mxCell>
        <mxCell id="_xnIuPefK0gF_MjHe_i0-64" value="" style="html=1;points=[[0,0,0,0,5],[0,1,0,0,-5],[1,0,0,0,5],[1,1,0,0,-5]];perimeter=orthogonalPerimeter;outlineConnect=0;targetShapes=umlLifeline;portConstraint=eastwest;newEdgeStyle={&quot;curved&quot;:0,&quot;rounded&quot;:0};" parent="_xnIuPefK0gF_MjHe_i0-12" vertex="1">
          <mxGeometry x="55" y="408" width="10" height="56" as="geometry" />
        </mxCell>
        <mxCell id="_xnIuPefK0gF_MjHe_i0-65" value="7. Request Payment" style="html=1;verticalAlign=bottom;endArrow=block;curved=0;rounded=0;" parent="_xnIuPefK0gF_MjHe_i0-12" source="_xnIuPefK0gF_MjHe_i0-67" edge="1">
          <mxGeometry x="0.0044" width="80" relative="1" as="geometry">
            <mxPoint x="-94.5" y="408" as="sourcePoint" />
            <mxPoint x="53" y="408" as="targetPoint" />
            <mxPoint as="offset" />
          </mxGeometry>
        </mxCell>
        <mxCell id="_xnIuPefK0gF_MjHe_i0-66" value="8. Payment" style="html=1;verticalAlign=bottom;endArrow=open;dashed=1;endSize=8;curved=0;rounded=0;" parent="_xnIuPefK0gF_MjHe_i0-12" edge="1">
          <mxGeometry x="0.0039" relative="1" as="geometry">
            <mxPoint x="53" y="463" as="sourcePoint" />
            <mxPoint x="-95.75" y="462.67" as="targetPoint" />
            <mxPoint as="offset" />
          </mxGeometry>
        </mxCell>
        <mxCell id="_xnIuPefK0gF_MjHe_i0-68" value="" style="html=1;points=[[0,0,0,0,5],[0,1,0,0,-5],[1,0,0,0,5],[1,1,0,0,-5]];perimeter=orthogonalPerimeter;outlineConnect=0;targetShapes=umlLifeline;portConstraint=eastwest;newEdgeStyle={&quot;curved&quot;:0,&quot;rounded&quot;:0};" parent="_xnIuPefK0gF_MjHe_i0-12" vertex="1">
          <mxGeometry x="-109" y="515" width="10" height="56" as="geometry" />
        </mxCell>
        <mxCell id="_xnIuPefK0gF_MjHe_i0-69" value="" style="html=1;points=[[0,0,0,0,5],[0,1,0,0,-5],[1,0,0,0,5],[1,1,0,0,-5]];perimeter=orthogonalPerimeter;outlineConnect=0;targetShapes=umlLifeline;portConstraint=eastwest;newEdgeStyle={&quot;curved&quot;:0,&quot;rounded&quot;:0};" parent="_xnIuPefK0gF_MjHe_i0-12" vertex="1">
          <mxGeometry x="55" y="515" width="10" height="56" as="geometry" />
        </mxCell>
        <mxCell id="_xnIuPefK0gF_MjHe_i0-38" value="" style="endArrow=open;endFill=1;endSize=12;html=1;rounded=0;" parent="1" source="_xnIuPefK0gF_MjHe_i0-12" edge="1">
          <mxGeometry width="160" relative="1" as="geometry">
            <mxPoint x="406" y="104" as="sourcePoint" />
            <mxPoint x="105.83333333333337" y="104" as="targetPoint" />
          </mxGeometry>
        </mxCell>
        <mxCell id="_xnIuPefK0gF_MjHe_i0-49" value="2." style="html=1;verticalAlign=bottom;endArrow=block;curved=0;rounded=0;" parent="1" edge="1">
          <mxGeometry x="0.0034" width="80" relative="1" as="geometry">
            <mxPoint x="105.5" y="174" as="sourcePoint" />
            <mxPoint x="253" y="174" as="targetPoint" />
            <mxPoint as="offset" />
          </mxGeometry>
        </mxCell>
        <mxCell id="_xnIuPefK0gF_MjHe_i0-72" value="2. Check Trainer Availability" style="edgeLabel;html=1;align=center;verticalAlign=middle;resizable=0;points=[];" parent="_xnIuPefK0gF_MjHe_i0-49" vertex="1" connectable="0">
          <mxGeometry x="0.07" y="10" relative="1" as="geometry">
            <mxPoint x="-8" as="offset" />
          </mxGeometry>
        </mxCell>
        <mxCell id="_xnIuPefK0gF_MjHe_i0-50" value="3. Trainer Details" style="html=1;verticalAlign=bottom;endArrow=open;dashed=1;endSize=8;curved=0;rounded=0;" parent="1" edge="1">
          <mxGeometry x="0.0039" relative="1" as="geometry">
            <mxPoint x="253" y="229" as="sourcePoint" />
            <mxPoint x="104.25" y="228.67000000000002" as="targetPoint" />
            <mxPoint as="offset" />
          </mxGeometry>
        </mxCell>
        <mxCell id="_xnIuPefK0gF_MjHe_i0-54" value="&lt;font style=&quot;font-size: 11px;&quot;&gt;1. request trainer&lt;/font&gt;" style="text;strokeColor=none;fillColor=none;align=left;verticalAlign=top;spacingLeft=4;spacingRight=4;overflow=hidden;rotatable=0;points=[[0,0.5],[1,0.5]];portConstraint=eastwest;whiteSpace=wrap;html=1;" parent="1" vertex="1">
          <mxGeometry x="270" y="80" width="140" height="16" as="geometry" />
        </mxCell>
        <mxCell id="_xnIuPefK0gF_MjHe_i0-59" value="" style="endArrow=open;endFill=1;endSize=12;html=1;rounded=0;" parent="1" edge="1">
          <mxGeometry width="160" relative="1" as="geometry">
            <mxPoint x="424.58" y="270" as="sourcePoint" />
            <mxPoint x="105.41333333333337" y="270" as="targetPoint" />
          </mxGeometry>
        </mxCell>
        <mxCell id="_xnIuPefK0gF_MjHe_i0-63" value="&lt;font style=&quot;font-size: 11px;&quot;&gt;4. Set Details&lt;/font&gt;" style="text;strokeColor=none;fillColor=none;align=left;verticalAlign=top;spacingLeft=4;spacingRight=4;overflow=hidden;rotatable=0;points=[[0,0.5],[1,0.5]];portConstraint=eastwest;whiteSpace=wrap;html=1;" parent="1" vertex="1">
          <mxGeometry x="286" y="248" width="140" height="16" as="geometry" />
        </mxCell>
        <mxCell id="_xnIuPefK0gF_MjHe_i0-74" value="" style="endArrow=open;endFill=1;endSize=12;html=1;rounded=0;" parent="1" edge="1">
          <mxGeometry width="160" relative="1" as="geometry">
            <mxPoint x="260" y="555" as="sourcePoint" />
            <mxPoint x="420" y="555" as="targetPoint" />
          </mxGeometry>
        </mxCell>
        <mxCell id="tUrqP_k_WXPkUFtkQNoO-1" value="&lt;span style=&quot;font-size: 11px;&quot;&gt;9.Send Invoice&lt;/span&gt;" style="text;strokeColor=none;fillColor=none;align=left;verticalAlign=top;spacingLeft=4;spacingRight=4;overflow=hidden;rotatable=0;points=[[0,0.5],[1,0.5]];portConstraint=eastwest;whiteSpace=wrap;html=1;" vertex="1" parent="1">
          <mxGeometry x="286" y="534" width="140" height="16" as="geometry" />
        </mxCell>
      </root>
    </mxGraphModel>
  </diagram>
</mxfile>
